
<svg width="31" height="40" viewBox="0 0 31 90" fill="none" xmlns="http://www.w3.org/2000/svg">
<path d="M15.4021 18.458C20.4991 18.458 24.6311 14.326 24.6311 9.229C24.6311 4.13196 20.4991 0 15.4021 0C10.3051 0 6.1731 4.13196 6.1731 9.229C6.1731 14.326 10.3051 18.458 15.4021 18.458Z" fill="#FFD600"/>
<path d="M24.879 20.9719H15.402H5.925C2.653 20.9719 0 23.6239 0 26.8969V48.2999C0 51.5709 2.653 54.2259 5.923 54.2259H7.361V85.4319C7.361 87.9539 9.405 89.9999 11.929 89.9999H18.872C21.395 89.9999 23.44 87.9539 23.44 85.4319V54.2259H24.879C28.149 54.2259 30.803 51.5719 30.803 48.2999V26.8969C30.804 23.6239 28.15 20.9719 24.879 20.9719Z" fill="#FFD600"/>
</svg>
